# xmcd
#
# Track frame offsets:
# 150
# 13940
# 27132
# 38843
# 52798
# 65173
# 77041
# 92310
# 108739
# 122890
# 137087
# 152000
# 164473
# 180763
# 191806
# 206360
# 218447
# 230146
# 241904
# 258592
# 277623
# 289387
# 306742
# 324165
# 343353
#
# Disc length: 4727 seconds
#
#
# Revision: 0
# Processed by: cddbd v1.5.2PL0 Copyright (c) Steve Scherf et al.
# Submitted via: FreeRIP 2.945 
#
DISCID=67127519
DTITLE=Valentín Elizalde - Puros Corridos
DYEAR=2007
DGENRE=Latin
TTITLE0=A mis Enemigos
TTITLE1=118 Balazos
TTITLE2=Contrabando en la Frontera
TTITLE3=Quiero Charlar con la Muerte
TTITLE4=La Dama y el Judicial
TTITLE5=La Tambora va a Sonar
TTITLE6=El Escape del Chapo
TTITLE7=Carga Blanca
TTITLE8=Rey Luna
TTITLE9=Lalo el de Guadalajara
TTITLE10=El General y el Sargento
TTITLE11=Catarino y los Rurales
TTITLE12=Nalo Valdez
TTITLE13=Viaje Especial
TTITLE14=El Narcobatallón
TTITLE15=La Novia de mi Hermano
TTITLE16=Ariel Caro
TTITLE17=Pedido Original
TTITLE18=Corrido del Aguacate
TTITLE19=Corrido del Médico
TTITLE20=Rodolfo Campa Roldán
TTITLE21=Sobre la Tumba de mi Padre
TTITLE22=Jesús Albino Quintero
TTITLE23=Rodolfillo
TTITLE24=Pancho Nopales
EXTD=y siguen las porquerias para los puercos
EXTT0=
EXTT1=
EXTT2=
EXTT3=
EXTT4=
EXTT5=
EXTT6=
EXTT7=
EXTT8=
EXTT9=
EXTT10=
EXTT11=
EXTT12=
EXTT13=
EXTT14=
EXTT15=
EXTT16=
EXTT17=
EXTT18=
EXTT19=
EXTT20=
EXTT21=
EXTT22=
EXTT23=
EXTT24=
PLAYORDER=
